<svg width="16" height="16" viewBox="0 0 16 16" fill="none" xmlns="http://www.w3.org/2000/svg">
<path d="M9 1.15332C9 0.601035 8.55228 0.15332 8 0.15332C7.44772 0.15332 7 0.601036 7 1.15332L9 1.15332ZM7.29289 14.8604C7.68342 15.251 8.31658 15.251 8.70711 14.8604L15.0711 8.49647C15.4616 8.10594 15.4616 7.47278 15.0711 7.08225C14.6805 6.69173 14.0474 6.69173 13.6569 7.08225L8 12.7391L2.34315 7.08225C1.95262 6.69173 1.31946 6.69173 0.928932 7.08225C0.538408 7.47278 0.538408 8.10594 0.928933 8.49647L7.29289 14.8604ZM7 1.15332L7 14.1533L9 14.1533L9 1.15332L7 1.15332Z" fill="#22253B"/>
</svg>
